<svg data-v-fde0c5aa="" xmlns="http://www.w3.org/2000/svg" viewBox="0 0 300 300" class="iconLeft"><!----><defs data-v-fde0c5aa=""><linearGradient data-v-fde0c5aa="" gradientTransform="rotate(25)" id="698f042f-95a3-4ed2-9ac9-f873b0ae64ba" x1="0%" y1="0%" x2="100%" y2="0%"><stop data-v-fde0c5aa="" offset="0%" stop-color="#F00079" stop-opacity="1"></stop><stop data-v-fde0c5aa="" offset="100%" stop-color="#F2A041" stop-opacity="1"></stop></linearGradient></defs><rect data-v-fde0c5aa="" fill="url(#698f042f-95a3-4ed2-9ac9-f873b0ae64ba)" x="0" y="0" width="300px" height="300px" class="logo-background-square"></rect><defs data-v-fde0c5aa=""><!----></defs><g data-v-fde0c5aa="" id="62ca8df3-ebd7-4818-b0ff-2cf6d1dc29de" fill="#ffffff" transform="matrix(2.5380229447382234,0,0,2.5380229447382234,118.4758350122418,132.9444854361898)"><path d="M3.05 12.07L3.05 12.07L3.05 12.07Q2.41 12.07 1.93 11.80L1.93 11.80L1.93 11.80Q1.44 11.52 1.10 11.03L1.10 11.03L1.10 11.03Q0.76 10.53 0.57 9.81L0.57 9.81L0.57 9.81Q0.39 9.09 0.39 8.27L0.39 8.27L0.39 8.27Q0.39 7.66 0.58 6.91L0.58 6.91L0.58 6.91Q0.77 6.16 1.11 5.63L1.11 5.63L1.11 5.63Q1.46 5.10 1.94 4.81L1.94 4.81L1.94 4.81Q2.42 4.52 3.05 4.52L3.05 4.52L3.05 4.52Q3.51 4.52 3.93 4.74L3.93 4.74L3.93 4.74Q4.34 4.96 4.65 5.39L4.65 5.39L4.65 1.48L4.65 1.48Q4.65 1.37 4.68 1.34L4.68 1.34L4.68 1.34Q4.70 1.32 4.79 1.32L4.79 1.32L5.99 1.32L5.99 1.32Q6.15 1.32 6.15 1.48L6.15 1.48L6.15 11.69L6.15 11.69Q6.15 11.90 5.95 11.90L5.95 11.90L4.83 11.90L4.83 11.90Q4.65 11.90 4.65 11.69L4.65 11.69L4.65 11.14L4.65 11.14Q4.41 11.56 3.96 11.82L3.96 11.82L3.96 11.82Q3.51 12.07 3.05 12.07ZM3.37 5.95L3.37 5.95L3.37 5.95Q2.70 5.95 2.34 6.65L2.34 6.65L2.34 6.65Q1.97 7.35 1.97 8.27L1.97 8.27L1.97 8.27Q1.97 9.27 2.35 9.96L2.35 9.96L2.35 9.96Q2.73 10.65 3.37 10.65L3.37 10.65L3.37 10.65Q3.64 10.65 3.89 10.47L3.89 10.47L3.89 10.47Q4.14 10.29 4.33 9.95L4.33 9.95L4.33 9.95Q4.52 9.62 4.62 9.15L4.62 9.15L4.62 9.15Q4.72 8.68 4.72 8.27L4.72 8.27L4.72 8.27Q4.72 7.28 4.36 6.62L4.36 6.62L4.36 6.62Q4.00 5.95 3.37 5.95ZM13.12 11.90L12.00 11.90L12.00 11.90Q11.90 11.90 11.88 11.89L11.88 11.89L11.88 11.89Q11.86 11.87 11.86 11.79L11.86 11.79L11.86 11.14L11.86 11.14Q11.52 11.63 11.02 11.88L11.02 11.88L11.02 11.88Q10.51 12.12 10.00 12.12L10.00 12.12L10.00 12.12Q9.59 12.12 9.13 11.98L9.13 11.98L9.13 11.98Q8.68 11.83 8.36 11.54L8.36 11.54L8.36 11.54Q8.04 11.26 7.85 10.84L7.85 10.84L7.85 10.84Q7.66 10.42 7.66 9.86L7.66 9.86L7.66 9.86Q7.66 9.25 7.90 8.76L7.90 8.76L7.90 8.76Q8.15 8.26 8.65 7.92L8.65 7.92L8.65 7.92Q9.16 7.59 9.88 7.43L9.88 7.43L9.88 7.43Q10.60 7.27 11.72 7.27L11.72 7.27L11.72 7.27Q11.72 7.01 11.67 6.80L11.67 6.80L11.67 6.80Q11.62 6.58 11.49 6.38L11.49 6.38L11.49 6.38Q11.37 6.19 11.14 6.06L11.14 6.06L11.14 6.06Q10.91 5.92 10.57 5.92L10.57 5.92L10.57 5.92Q10.12 5.92 9.64 6.09L9.64 6.09L9.64 6.09Q9.16 6.26 8.74 6.54L8.74 6.54L8.74 6.54Q8.53 6.68 8.45 6.66L8.45 6.66L8.45 6.66Q8.37 6.65 8.37 6.51L8.37 6.51L8.37 5.42L8.37 5.42Q8.37 5.39 8.37 5.31L8.37 5.31L8.37 5.31Q8.36 5.24 8.41 5.19L8.41 5.19L8.41 5.19Q8.48 5.12 8.60 5.07L8.60 5.07L8.60 5.07Q9.02 4.83 9.52 4.68L9.52 4.68L9.52 4.68Q10.02 4.52 10.54 4.52L10.54 4.52L10.54 4.52Q11.89 4.52 12.55 5.20L12.55 5.20L12.55 5.20Q13.22 5.88 13.22 7.15L13.22 7.15L13.22 10.23L13.22 10.23Q13.22 10.61 13.22 11.00L13.22 11.00L13.22 11.00Q13.23 11.40 13.27 11.70L13.27 11.70L13.27 11.70Q13.29 11.90 13.12 11.90L13.12 11.90ZM9.16 9.76L9.16 9.76L9.16 9.76Q9.16 10.25 9.45 10.49L9.45 10.49L9.45 10.49Q9.74 10.74 10.08 10.74L10.08 10.74L10.08 10.74Q10.82 10.74 11.30 10.16L11.30 10.16L11.30 10.16Q11.77 9.58 11.77 8.75L11.77 8.75L11.77 8.60L11.77 8.60Q10.28 8.60 9.72 8.90L9.72 8.90L9.72 8.90Q9.16 9.20 9.16 9.76ZM20.24 11.75L20.24 11.75L20.24 11.75Q19.73 11.93 19.20 12.01L19.20 12.01L19.20 12.01Q18.68 12.10 18.31 12.08L18.31 12.08L18.31 12.08Q17.58 12.08 17.15 11.84L17.15 11.84L17.15 11.84Q16.72 11.59 16.55 11.27L16.55 11.27L16.55 11.27Q16.35 10.91 16.31 10.42L16.31 10.42L16.31 10.42Q16.27 9.93 16.27 9.09L16.27 9.09L16.27 6.44L14.73 6.44L14.73 6.44Q14.66 6.44 14.61 6.39L14.61 6.39L14.61 6.39Q14.56 6.34 14.56 6.27L14.56 6.27L14.56 5.17L14.56 5.17Q14.56 5.10 14.61 5.05L14.61 5.05L14.61 5.05Q14.66 5.00 14.73 5.00L14.73 5.00L16.27 5.00L16.27 2.97L16.27 2.97Q16.27 2.90 16.32 2.85L16.32 2.85L16.32 2.85Q16.38 2.80 16.45 2.80L16.45 2.80L17.58 2.80L17.58 2.80Q17.67 2.80 17.72 2.85L17.72 2.85L17.72 2.85Q17.77 2.90 17.77 2.97L17.77 2.97L17.77 5.00L20.12 5.00L20.12 5.00Q20.19 5.00 20.24 5.05L20.24 5.05L20.24 5.05Q20.29 5.10 20.29 5.17L20.29 5.17L20.29 6.27L20.29 6.27Q20.29 6.34 20.24 6.39L20.24 6.39L20.24 6.39Q20.19 6.44 20.12 6.44L20.12 6.44L17.77 6.44L17.77 9.17L17.77 9.17Q17.77 10.08 17.81 10.33L17.81 10.33L17.81 10.33Q17.84 10.60 18.07 10.65L18.07 10.65L18.07 10.65Q18.30 10.71 18.69 10.71L18.69 10.71L18.69 10.71Q19.01 10.71 19.36 10.64L19.36 10.64L19.36 10.64Q19.71 10.57 20.05 10.46L20.05 10.46L20.05 10.46Q20.12 10.43 20.15 10.45L20.15 10.45L20.15 10.45Q20.17 10.47 20.20 10.58L20.20 10.58L20.31 11.58L20.31 11.58Q20.33 11.68 20.24 11.75ZM27.12 11.90L26.00 11.90L26.00 11.90Q25.90 11.90 25.88 11.89L25.88 11.89L25.88 11.89Q25.86 11.87 25.86 11.79L25.86 11.79L25.86 11.14L25.86 11.14Q25.52 11.63 25.02 11.88L25.02 11.88L25.02 11.88Q24.51 12.12 24.00 12.12L24.00 12.12L24.00 12.12Q23.59 12.12 23.14 11.98L23.14 11.98L23.14 11.98Q22.68 11.83 22.36 11.54L22.36 11.54L22.36 11.54Q22.04 11.26 21.85 10.84L21.85 10.84L21.85 10.84Q21.66 10.42 21.66 9.86L21.66 9.86L21.66 9.86Q21.66 9.25 21.90 8.76L21.90 8.76L21.90 8.76Q22.15 8.26 22.65 7.92L22.65 7.92L22.65 7.92Q23.16 7.59 23.88 7.43L23.88 7.43L23.88 7.43Q24.60 7.27 25.72 7.27L25.72 7.27L25.72 7.27Q25.72 7.01 25.67 6.80L25.67 6.80L25.67 6.80Q25.62 6.58 25.49 6.38L25.49 6.38L25.49 6.38Q25.37 6.19 25.14 6.06L25.14 6.06L25.14 6.06Q24.91 5.92 24.57 5.92L24.57 5.92L24.57 5.92Q24.12 5.92 23.64 6.09L23.64 6.09L23.64 6.09Q23.16 6.26 22.74 6.54L22.74 6.54L22.74 6.54Q22.53 6.68 22.45 6.66L22.45 6.66L22.45 6.66Q22.37 6.65 22.37 6.51L22.37 6.51L22.37 5.42L22.37 5.42Q22.37 5.39 22.36 5.31L22.36 5.31L22.36 5.31Q22.36 5.24 22.41 5.19L22.41 5.19L22.41 5.19Q22.48 5.12 22.60 5.07L22.60 5.07L22.60 5.07Q23.02 4.83 23.52 4.68L23.52 4.68L23.52 4.68Q24.02 4.52 24.54 4.52L24.54 4.52L24.54 4.52Q25.89 4.52 26.55 5.20L26.55 5.20L26.55 5.20Q27.22 5.88 27.22 7.15L27.22 7.15L27.22 10.23L27.22 10.23Q27.22 10.61 27.22 11.00L27.22 11.00L27.22 11.00Q27.23 11.40 27.27 11.70L27.27 11.70L27.27 11.70Q27.29 11.90 27.12 11.90L27.12 11.90ZM23.16 9.76L23.16 9.76L23.16 9.76Q23.16 10.25 23.45 10.49L23.45 10.49L23.45 10.49Q23.74 10.74 24.08 10.74L24.08 10.74L24.08 10.74Q24.82 10.74 25.30 10.16L25.30 10.16L25.30 10.16Q25.77 9.58 25.77 8.75L25.77 8.75L25.77 8.60L25.77 8.60Q24.28 8.60 23.72 8.90L23.72 8.90L23.72 8.90Q23.16 9.20 23.16 9.76ZM32.58 11.90L28.80 11.90L28.80 11.90Q28.73 11.90 28.68 11.85L28.68 11.85L28.68 11.85Q28.63 11.80 28.63 11.72L28.63 11.72L28.63 10.63L28.63 10.63Q28.63 10.56 28.68 10.51L28.68 10.51L28.68 10.51Q28.73 10.46 28.80 10.46L28.80 10.46L29.68 10.46L29.68 6.59L29.68 6.10L28.53 6.10L28.53 6.10Q28.46 6.10 28.41 6.06L28.41 6.06L28.41 6.06Q28.36 6.01 28.36 5.92L28.36 5.92L28.36 4.87L28.36 4.87Q28.36 4.80 28.41 4.75L28.41 4.75L28.41 4.75Q28.46 4.70 28.53 4.70L28.53 4.70L30.83 4.70L30.83 4.70Q30.88 4.70 30.92 4.74L30.92 4.74L30.92 4.74Q30.95 4.77 30.95 4.83L30.95 4.83L30.95 6.02L30.95 6.02Q31.09 5.73 31.25 5.51L31.25 5.51L31.25 5.51Q31.42 5.29 31.61 5.12L31.61 5.12L31.61 5.12Q31.79 4.94 32.04 4.80L32.04 4.80L32.04 4.80Q32.28 4.65 32.76 4.54L32.76 4.54L32.76 4.54Q33.36 4.44 33.93 4.56L33.93 4.56L33.93 4.56Q34.50 4.69 34.87 5.00L34.87 5.00L34.87 5.00Q34.94 5.07 34.93 5.12L34.93 5.12L34.93 5.12Q34.92 5.18 34.90 5.24L34.90 5.24L34.44 6.19L34.44 6.19Q34.41 6.27 34.35 6.30L34.35 6.30L34.35 6.30Q34.29 6.33 34.19 6.27L34.19 6.27L34.19 6.27Q33.87 6.09 33.47 6.02L33.47 6.02L33.47 6.02Q33.08 5.95 32.70 6.02L32.70 6.02L32.70 6.02Q32.05 6.15 31.67 6.65L31.67 6.65L31.67 6.65Q31.29 7.15 31.21 7.67L31.21 7.67L31.21 7.67Q31.12 8.19 31.12 8.89L31.12 8.89L31.12 10.46L32.58 10.46L32.58 10.46Q32.65 10.46 32.70 10.51L32.70 10.51L32.70 10.51Q32.75 10.56 32.75 10.63L32.75 10.63L32.75 11.72L32.75 11.72Q32.75 11.90 32.58 11.90L32.58 11.90ZM40.70 10.92L40.70 10.92L40.70 10.92Q40.29 11.51 39.74 11.81L39.74 11.81L39.74 11.81Q39.19 12.11 38.50 12.11L38.50 12.11L38.50 12.11Q37.80 12.11 37.26 11.82L37.26 11.82L37.26 11.82Q36.72 11.52 36.35 11.00L36.35 11.00L36.35 11.00Q35.98 10.47 35.80 9.79L35.80 9.79L35.80 9.79Q35.62 9.10 35.62 8.32L35.62 8.32L35.62 8.32Q35.62 7.53 35.80 6.85L35.80 6.85L35.80 6.85Q35.98 6.16 36.35 5.64L36.35 5.64L36.35 5.64Q36.72 5.12 37.25 4.83L37.25 4.83L37.25 4.83Q37.79 4.54 38.50 4.54L38.50 4.54L38.50 4.54Q39.20 4.54 39.74 4.83L39.74 4.83L39.74 4.83Q40.28 5.12 40.65 5.64L40.65 5.64L40.65 5.64Q41.02 6.16 41.20 6.85L41.20 6.85L41.20 6.85Q41.38 7.53 41.38 8.32L41.38 8.32L41.38 8.32Q41.38 9.09 41.20 9.76L41.20 9.76L41.20 9.76Q41.02 10.43 40.70 10.92ZM38.50 5.91L38.50 5.91L38.50 5.91Q38.14 5.91 37.88 6.12L37.88 6.12L37.88 6.12Q37.63 6.33 37.47 6.67L37.47 6.67L37.47 6.67Q37.31 7.01 37.22 7.45L37.22 7.45L37.22 7.45Q37.13 7.88 37.13 8.32L37.13 8.32L37.13 8.32Q37.13 8.76 37.22 9.19L37.22 9.19L37.22 9.19Q37.31 9.62 37.47 9.97L37.47 9.97L37.47 9.97Q37.63 10.32 37.88 10.53L37.88 10.53L37.88 10.53Q38.14 10.74 38.50 10.74L38.50 10.74L38.50 10.74Q38.85 10.74 39.11 10.53L39.11 10.53L39.11 10.53Q39.37 10.32 39.53 9.97L39.53 9.97L39.53 9.97Q39.69 9.62 39.78 9.19L39.78 9.19L39.78 9.19Q39.87 8.76 39.87 8.32L39.87 8.32L39.87 8.32Q39.87 7.88 39.78 7.46L39.78 7.46L39.78 7.46Q39.69 7.03 39.53 6.69L39.53 6.69L39.53 6.69Q39.37 6.34 39.11 6.13L39.11 6.13L39.11 6.13Q38.85 5.91 38.50 5.91ZM47.89 11.87L47.89 11.87L47.89 11.87Q47.75 11.93 47.54 11.97L47.54 11.97L47.54 11.97Q47.33 12.01 47.07 12.04L47.07 12.04L47.07 12.04Q46.80 12.07 46.59 12.08L46.59 12.08L46.59 12.08Q46.38 12.08 46.13 12.07L46.13 12.07L46.13 12.07Q45.32 12.01 44.75 11.70L44.75 11.70L44.75 11.70Q44.18 11.40 43.76 10.91L43.76 10.91L43.76 10.91Q43.33 10.42 43.11 9.74L43.11 9.74L43.11 9.74Q42.90 9.07 42.90 8.29L42.90 8.29L42.90 8.29Q42.90 7.48 43.16 6.78L43.16 6.78L43.16 6.78Q43.43 6.09 43.90 5.59L43.90 5.59L43.90 5.59Q44.37 5.08 44.96 4.81L44.96 4.81L44.96 4.81Q45.56 4.54 46.38 4.54L46.38 4.54L46.38 4.54Q46.72 4.54 47.13 4.60L47.13 4.60L47.13 4.60Q47.54 4.66 47.94 4.80L47.94 4.80L47.94 4.80Q47.99 4.82 48.02 4.85L48.02 4.85L48.02 4.85Q48.05 4.89 48.03 5.01L48.03 5.01L47.91 5.99L47.91 5.99Q47.89 6.09 47.85 6.13L47.85 6.13L47.85 6.13Q47.81 6.17 47.70 6.15L47.70 6.15L47.70 6.15Q47.40 6.03 47.05 5.98L47.05 5.98L47.05 5.98Q46.70 5.92 46.35 5.92L46.35 5.92L46.35 5.92Q45.33 5.92 44.88 6.59L44.88 6.59L44.88 6.59Q44.42 7.27 44.42 8.29L44.42 8.29L44.42 8.29Q44.42 9.27 44.88 9.91L44.88 9.91L44.88 9.91Q45.33 10.56 46.21 10.68L46.21 10.68L46.21 10.68Q47.01 10.78 47.75 10.56L47.75 10.56L47.75 10.56Q47.88 10.50 47.91 10.54L47.91 10.54L47.91 10.54Q47.95 10.58 47.96 10.67L47.96 10.67L48.03 11.65L48.03 11.65Q48.05 11.75 48.03 11.80L48.03 11.80L48.03 11.80Q48.01 11.84 47.89 11.87ZM55.61 11.90L54.32 11.90L54.32 11.90Q54.17 11.90 54.10 11.87L54.10 11.87L54.10 11.87Q54.04 11.83 53.97 11.72L53.97 11.72L52.14 8.74L51.32 9.67L51.32 11.73L51.32 11.73Q51.32 11.90 51.14 11.90L51.14 11.90L50.01 11.90L50.01 11.90Q49.94 11.90 49.89 11.85L49.89 11.85L49.89 11.85Q49.84 11.80 49.84 11.73L49.84 11.73L49.84 1.55L49.84 1.55Q49.84 1.48 49.89 1.44L49.89 1.44L49.89 1.44Q49.94 1.39 50.01 1.39L50.01 1.39L51.14 1.39L51.14 1.39Q51.23 1.39 51.27 1.44L51.27 1.44L51.27 1.44Q51.32 1.48 51.32 1.55L51.32 1.55L51.32 7.60L53.65 4.83L53.65 4.83Q53.76 4.70 53.87 4.70L53.87 4.70L55.31 4.70L55.31 4.70Q55.58 4.70 55.40 4.90L55.40 4.90L53.10 7.62L55.71 11.72L55.71 11.72Q55.85 11.90 55.61 11.90L55.61 11.90Z"></path></g><defs data-v-fde0c5aa=""><!----></defs><g data-v-fde0c5aa="" id="bc965136-d11c-42b2-9c06-95af5c7b8f79" stroke="none" fill="#ffffff" transform="matrix(1.5457131162795807,0,0,1.5457131162795807,-4.052823813968054,72.71434123780716)"><path d="M39.6 63.3h31.9l-9.6-21.8-7.9 3.2-4.3-8-9 9.1-3.7 8.4-4.8-.5-3.7 9.6z"></path></g><!----></svg>